<?xml version="1.0" encoding="UTF-8" standalone="no"?>
<svg
   viewBox="0 0 223.99979 231.99994"
   version="1.1"
   id="svg2"
   xml:space="preserve"
   width="223.99979"
   height="231.99994"
   xmlns="http://www.w3.org/2000/svg"
   xmlns:svg="http://www.w3.org/2000/svg"><defs
     id="defs2" /><g
     id="g1"
     transform="matrix(14.114246,0,0,14.114246,224.91542,225.3854)"><path
       stroke="#f5a97f"
       d="m -14.500111,-14.5 h 13.0000004 l -1.5,11.5 -5,2 -5.0000004,-2 z"
       id="path1"
       style="fill:none;stroke:#f5a97f;stroke-linecap:round;stroke-linejoin:round;stroke-opacity:1" /><g
       id="g5"
       transform="matrix(0.49927383,0,0,0.49927383,-11.994301,-12.482037)"
       style="stroke:#cad3f5;stroke-opacity:1"><path
         stroke="#cad3f5"
         d="m 5.0542309,1.5 c 0,0 -1.4752751,-0.00822 -2.2917005,1.0516 -0.8164254,1.0598214 0.4610754,4.2428 -0.943362,5.4240581 -0.2828556,0.237907 -1.1088116,0 -1.1088116,0 0,0 0.8261381,-0.2381234 1.1088116,0 1.4159975,1.192833 0.047303,4.4278169 0.943362,5.4736799 0.8960587,1.045862 2.2917005,1.051125 2.2917005,1.051125"
         id="path2-3-5"
         style="fill:none;stroke:#cad3f5;stroke-width:1.62062;stroke-linecap:butt;stroke-linejoin:bevel;stroke-opacity:1" /><path
         stroke="#cad3f5"
         d="m 10.945769,1.5 c 0,0 1.475275,-0.00822 2.291701,1.0516 0.816425,1.0598214 -0.461076,4.2428 0.943362,5.4240581 0.282855,0.237907 1.108811,0 1.108811,0 0,0 -0.826138,-0.2381234 -1.108811,0 -1.415998,1.192833 -0.0473,4.4278169 -0.943362,5.4736799 -0.896059,1.045862 -2.291701,1.051125 -2.291701,1.051125"
         id="path5"
         style="fill:none;stroke:#cad3f5;stroke-width:1.62062;stroke-linecap:butt;stroke-linejoin:bevel;stroke-opacity:1" /></g></g></svg>
